<?xml version="1.0" standalone="yes"?>
<svg version="1.1" xmlns="http://www.w3.org/2000/svg" xmlns:xlink="http://www.w3.org/1999/xlink" xmlns:ev="http://www.w3.org/2001/xml-events" width="174" height="174" shape-rendering="crispEdges">
<rect width="6" height="6" x="0" y="0" style="fill:#000"/><rect width="6" height="6" x="6" y="0" style="fill:#000"/><rect width="6" height="6" x="12" y="0" style="fill:#000"/><rect width="6" height="6" x="18" y="0" style="fill:#000"/><rect width="6" height="6" x="24" y="0" style="fill:#000"/><rect width="6" height="6" x="30" y="0" style="fill:#000"/><rect width="6" height="6" x="36" y="0" style="fill:#000"/><rect width="6" height="6" x="54" y="0" style="fill:#000"/><rect width="6" height="6" x="66" y="0" style="fill:#000"/><rect width="6" height="6" x="78" y="0" style="fill:#000"/><rect width="6" height="6" x="90" y="0" style="fill:#000"/><rect width="6" height="6" x="102" y="0" style="fill:#000"/><rect width="6" height="6" x="108" y="0" style="fill:#000"/><rect width="6" height="6" x="114" y="0" style="fill:#000"/><rect width="6" height="6" x="120" y="0" style="fill:#000"/><rect width="6" height="6" x="132" y="0" style="fill:#000"/><rect width="6" height="6" x="138" y="0" style="fill:#000"/><rect width="6" height="6" x="144" y="0" style="fill:#000"/><rect width="6" height="6" x="150" y="0" style="fill:#000"/><rect width="6" height="6" x="156" y="0" style="fill:#000"/><rect width="6" height="6" x="162" y="0" style="fill:#000"/><rect width="6" height="6" x="168" y="0" style="fill:#000"/>
<rect width="6" height="6" x="0" y="6" style="fill:#000"/><rect width="6" height="6" x="36" y="6" style="fill:#000"/><rect width="6" height="6" x="48" y="6" style="fill:#000"/><rect width="6" height="6" x="54" y="6" style="fill:#000"/><rect width="6" height="6" x="60" y="6" style="fill:#000"/><rect width="6" height="6" x="66" y="6" style="fill:#000"/><rect width="6" height="6" x="72" y="6" style="fill:#000"/><rect width="6" height="6" x="78" y="6" style="fill:#000"/><rect width="6" height="6" x="84" y="6" style="fill:#000"/><rect width="6" height="6" x="96" y="6" style="fill:#000"/><rect width="6" height="6" x="114" y="6" style="fill:#000"/><rect width="6" height="6" x="132" y="6" style="fill:#000"/><rect width="6" height="6" x="168" y="6" style="fill:#000"/>
<rect width="6" height="6" x="0" y="12" style="fill:#000"/><rect width="6" height="6" x="12" y="12" style="fill:#000"/><rect width="6" height="6" x="18" y="12" style="fill:#000"/><rect width="6" height="6" x="24" y="12" style="fill:#000"/><rect width="6" height="6" x="36" y="12" style="fill:#000"/><rect width="6" height="6" x="60" y="12" style="fill:#000"/><rect width="6" height="6" x="66" y="12" style="fill:#000"/><rect width="6" height="6" x="72" y="12" style="fill:#000"/><rect width="6" height="6" x="84" y="12" style="fill:#000"/><rect width="6" height="6" x="102" y="12" style="fill:#000"/><rect width="6" height="6" x="114" y="12" style="fill:#000"/><rect width="6" height="6" x="120" y="12" style="fill:#000"/><rect width="6" height="6" x="132" y="12" style="fill:#000"/><rect width="6" height="6" x="144" y="12" style="fill:#000"/><rect width="6" height="6" x="150" y="12" style="fill:#000"/><rect width="6" height="6" x="156" y="12" style="fill:#000"/><rect width="6" height="6" x="168" y="12" style="fill:#000"/>
<rect width="6" height="6" x="0" y="18" style="fill:#000"/><rect width="6" height="6" x="12" y="18" style="fill:#000"/><rect width="6" height="6" x="18" y="18" style="fill:#000"/><rect width="6" height="6" x="24" y="18" style="fill:#000"/><rect width="6" height="6" x="36" y="18" style="fill:#000"/><rect width="6" height="6" x="54" y="18" style="fill:#000"/><rect width="6" height="6" x="78" y="18" style="fill:#000"/><rect width="6" height="6" x="90" y="18" style="fill:#000"/><rect width="6" height="6" x="96" y="18" style="fill:#000"/><rect width="6" height="6" x="108" y="18" style="fill:#000"/><rect width="6" height="6" x="132" y="18" style="fill:#000"/><rect width="6" height="6" x="144" y="18" style="fill:#000"/><rect width="6" height="6" x="150" y="18" style="fill:#000"/><rect width="6" height="6" x="156" y="18" style="fill:#000"/><rect width="6" height="6" x="168" y="18" style="fill:#000"/>
<rect width="6" height="6" x="0" y="24" style="fill:#000"/><rect width="6" height="6" x="12" y="24" style="fill:#000"/><rect width="6" height="6" x="18" y="24" style="fill:#000"/><rect width="6" height="6" x="24" y="24" style="fill:#000"/><rect width="6" height="6" x="36" y="24" style="fill:#000"/><rect width="6" height="6" x="66" y="24" style="fill:#000"/><rect width="6" height="6" x="72" y="24" style="fill:#000"/><rect width="6" height="6" x="84" y="24" style="fill:#000"/><rect width="6" height="6" x="96" y="24" style="fill:#000"/><rect width="6" height="6" x="102" y="24" style="fill:#000"/><rect width="6" height="6" x="108" y="24" style="fill:#000"/><rect width="6" height="6" x="132" y="24" style="fill:#000"/><rect width="6" height="6" x="144" y="24" style="fill:#000"/><rect width="6" height="6" x="150" y="24" style="fill:#000"/><rect width="6" height="6" x="156" y="24" style="fill:#000"/><rect width="6" height="6" x="168" y="24" style="fill:#000"/>
<rect width="6" height="6" x="0" y="30" style="fill:#000"/><rect width="6" height="6" x="36" y="30" style="fill:#000"/><rect width="6" height="6" x="48" y="30" style="fill:#000"/><rect width="6" height="6" x="84" y="30" style="fill:#000"/><rect width="6" height="6" x="102" y="30" style="fill:#000"/><rect width="6" height="6" x="114" y="30" style="fill:#000"/><rect width="6" height="6" x="132" y="30" style="fill:#000"/><rect width="6" height="6" x="168" y="30" style="fill:#000"/>
<rect width="6" height="6" x="0" y="36" style="fill:#000"/><rect width="6" height="6" x="6" y="36" style="fill:#000"/><rect width="6" height="6" x="12" y="36" style="fill:#000"/><rect width="6" height="6" x="18" y="36" style="fill:#000"/><rect width="6" height="6" x="24" y="36" style="fill:#000"/><rect width="6" height="6" x="30" y="36" style="fill:#000"/><rect width="6" height="6" x="36" y="36" style="fill:#000"/><rect width="6" height="6" x="48" y="36" style="fill:#000"/><rect width="6" height="6" x="60" y="36" style="fill:#000"/><rect width="6" height="6" x="72" y="36" style="fill:#000"/><rect width="6" height="6" x="84" y="36" style="fill:#000"/><rect width="6" height="6" x="96" y="36" style="fill:#000"/><rect width="6" height="6" x="108" y="36" style="fill:#000"/><rect width="6" height="6" x="120" y="36" style="fill:#000"/><rect width="6" height="6" x="132" y="36" style="fill:#000"/><rect width="6" height="6" x="138" y="36" style="fill:#000"/><rect width="6" height="6" x="144" y="36" style="fill:#000"/><rect width="6" height="6" x="150" y="36" style="fill:#000"/><rect width="6" height="6" x="156" y="36" style="fill:#000"/><rect width="6" height="6" x="162" y="36" style="fill:#000"/><rect width="6" height="6" x="168" y="36" style="fill:#000"/>
<rect width="6" height="6" x="48" y="42" style="fill:#000"/><rect width="6" height="6" x="60" y="42" style="fill:#000"/><rect width="6" height="6" x="72" y="42" style="fill:#000"/><rect width="6" height="6" x="114" y="42" style="fill:#000"/><rect width="6" height="6" x="120" y="42" style="fill:#000"/>
<rect width="6" height="6" x="24" y="48" style="fill:#000"/><rect width="6" height="6" x="30" y="48" style="fill:#000"/><rect width="6" height="6" x="36" y="48" style="fill:#000"/><rect width="6" height="6" x="42" y="48" style="fill:#000"/><rect width="6" height="6" x="54" y="48" style="fill:#000"/><rect width="6" height="6" x="60" y="48" style="fill:#000"/><rect width="6" height="6" x="66" y="48" style="fill:#000"/><rect width="6" height="6" x="84" y="48" style="fill:#000"/><rect width="6" height="6" x="90" y="48" style="fill:#000"/><rect width="6" height="6" x="96" y="48" style="fill:#000"/><rect width="6" height="6" x="132" y="48" style="fill:#000"/><rect width="6" height="6" x="138" y="48" style="fill:#000"/><rect width="6" height="6" x="162" y="48" style="fill:#000"/>
<rect width="6" height="6" x="0" y="54" style="fill:#000"/><rect width="6" height="6" x="18" y="54" style="fill:#000"/><rect width="6" height="6" x="24" y="54" style="fill:#000"/><rect width="6" height="6" x="42" y="54" style="fill:#000"/><rect width="6" height="6" x="48" y="54" style="fill:#000"/><rect width="6" height="6" x="54" y="54" style="fill:#000"/><rect width="6" height="6" x="60" y="54" style="fill:#000"/><rect width="6" height="6" x="66" y="54" style="fill:#000"/><rect width="6" height="6" x="72" y="54" style="fill:#000"/><rect width="6" height="6" x="78" y="54" style="fill:#000"/><rect width="6" height="6" x="84" y="54" style="fill:#000"/><rect width="6" height="6" x="96" y="54" style="fill:#000"/><rect width="6" height="6" x="102" y="54" style="fill:#000"/><rect width="6" height="6" x="108" y="54" style="fill:#000"/><rect width="6" height="6" x="126" y="54" style="fill:#000"/><rect width="6" height="6" x="132" y="54" style="fill:#000"/><rect width="6" height="6" x="138" y="54" style="fill:#000"/><rect width="6" height="6" x="144" y="54" style="fill:#000"/><rect width="6" height="6" x="150" y="54" style="fill:#000"/><rect width="6" height="6" x="156" y="54" style="fill:#000"/><rect width="6" height="6" x="162" y="54" style="fill:#000"/><rect width="6" height="6" x="168" y="54" style="fill:#000"/>
<rect width="6" height="6" x="0" y="60" style="fill:#000"/><rect width="6" height="6" x="24" y="60" style="fill:#000"/><rect width="6" height="6" x="30" y="60" style="fill:#000"/><rect width="6" height="6" x="36" y="60" style="fill:#000"/><rect width="6" height="6" x="42" y="60" style="fill:#000"/><rect width="6" height="6" x="54" y="60" style="fill:#000"/><rect width="6" height="6" x="72" y="60" style="fill:#000"/><rect width="6" height="6" x="108" y="60" style="fill:#000"/><rect width="6" height="6" x="120" y="60" style="fill:#000"/><rect width="6" height="6" x="126" y="60" style="fill:#000"/><rect width="6" height="6" x="138" y="60" style="fill:#000"/><rect width="6" height="6" x="144" y="60" style="fill:#000"/><rect width="6" height="6" x="150" y="60" style="fill:#000"/><rect width="6" height="6" x="156" y="60" style="fill:#000"/><rect width="6" height="6" x="168" y="60" style="fill:#000"/>
<rect width="6" height="6" x="0" y="66" style="fill:#000"/><rect width="6" height="6" x="12" y="66" style="fill:#000"/><rect width="6" height="6" x="18" y="66" style="fill:#000"/><rect width="6" height="6" x="42" y="66" style="fill:#000"/><rect width="6" height="6" x="54" y="66" style="fill:#000"/><rect width="6" height="6" x="66" y="66" style="fill:#000"/><rect width="6" height="6" x="72" y="66" style="fill:#000"/><rect width="6" height="6" x="84" y="66" style="fill:#000"/><rect width="6" height="6" x="96" y="66" style="fill:#000"/><rect width="6" height="6" x="120" y="66" style="fill:#000"/><rect width="6" height="6" x="126" y="66" style="fill:#000"/><rect width="6" height="6" x="144" y="66" style="fill:#000"/><rect width="6" height="6" x="150" y="66" style="fill:#000"/><rect width="6" height="6" x="162" y="66" style="fill:#000"/><rect width="6" height="6" x="168" y="66" style="fill:#000"/>
<rect width="6" height="6" x="6" y="72" style="fill:#000"/><rect width="6" height="6" x="12" y="72" style="fill:#000"/><rect width="6" height="6" x="24" y="72" style="fill:#000"/><rect width="6" height="6" x="30" y="72" style="fill:#000"/><rect width="6" height="6" x="36" y="72" style="fill:#000"/><rect width="6" height="6" x="54" y="72" style="fill:#000"/><rect width="6" height="6" x="96" y="72" style="fill:#000"/><rect width="6" height="6" x="114" y="72" style="fill:#000"/><rect width="6" height="6" x="120" y="72" style="fill:#000"/><rect width="6" height="6" x="138" y="72" style="fill:#000"/><rect width="6" height="6" x="168" y="72" style="fill:#000"/>
<rect width="6" height="6" x="18" y="78" style="fill:#000"/><rect width="6" height="6" x="24" y="78" style="fill:#000"/><rect width="6" height="6" x="48" y="78" style="fill:#000"/><rect width="6" height="6" x="60" y="78" style="fill:#000"/><rect width="6" height="6" x="78" y="78" style="fill:#000"/><rect width="6" height="6" x="90" y="78" style="fill:#000"/><rect width="6" height="6" x="96" y="78" style="fill:#000"/><rect width="6" height="6" x="102" y="78" style="fill:#000"/><rect width="6" height="6" x="108" y="78" style="fill:#000"/><rect width="6" height="6" x="132" y="78" style="fill:#000"/><rect width="6" height="6" x="144" y="78" style="fill:#000"/><rect width="6" height="6" x="156" y="78" style="fill:#000"/><rect width="6" height="6" x="168" y="78" style="fill:#000"/>
<rect width="6" height="6" x="6" y="84" style="fill:#000"/><rect width="6" height="6" x="12" y="84" style="fill:#000"/><rect width="6" height="6" x="18" y="84" style="fill:#000"/><rect width="6" height="6" x="24" y="84" style="fill:#000"/><rect width="6" height="6" x="30" y="84" style="fill:#000"/><rect width="6" height="6" x="36" y="84" style="fill:#000"/><rect width="6" height="6" x="54" y="84" style="fill:#000"/><rect width="6" height="6" x="66" y="84" style="fill:#000"/><rect width="6" height="6" x="84" y="84" style="fill:#000"/><rect width="6" height="6" x="96" y="84" style="fill:#000"/><rect width="6" height="6" x="102" y="84" style="fill:#000"/><rect width="6" height="6" x="120" y="84" style="fill:#000"/><rect width="6" height="6" x="126" y="84" style="fill:#000"/><rect width="6" height="6" x="132" y="84" style="fill:#000"/><rect width="6" height="6" x="144" y="84" style="fill:#000"/><rect width="6" height="6" x="168" y="84" style="fill:#000"/>
<rect width="6" height="6" x="0" y="90" style="fill:#000"/><rect width="6" height="6" x="6" y="90" style="fill:#000"/><rect width="6" height="6" x="12" y="90" style="fill:#000"/><rect width="6" height="6" x="24" y="90" style="fill:#000"/><rect width="6" height="6" x="30" y="90" style="fill:#000"/><rect width="6" height="6" x="42" y="90" style="fill:#000"/><rect width="6" height="6" x="48" y="90" style="fill:#000"/><rect width="6" height="6" x="54" y="90" style="fill:#000"/><rect width="6" height="6" x="60" y="90" style="fill:#000"/><rect width="6" height="6" x="72" y="90" style="fill:#000"/><rect width="6" height="6" x="78" y="90" style="fill:#000"/><rect width="6" height="6" x="90" y="90" style="fill:#000"/><rect width="6" height="6" x="102" y="90" style="fill:#000"/><rect width="6" height="6" x="114" y="90" style="fill:#000"/><rect width="6" height="6" x="138" y="90" style="fill:#000"/><rect width="6" height="6" x="150" y="90" style="fill:#000"/><rect width="6" height="6" x="168" y="90" style="fill:#000"/>
<rect width="6" height="6" x="6" y="96" style="fill:#000"/><rect width="6" height="6" x="36" y="96" style="fill:#000"/><rect width="6" height="6" x="42" y="96" style="fill:#000"/><rect width="6" height="6" x="60" y="96" style="fill:#000"/><rect width="6" height="6" x="66" y="96" style="fill:#000"/><rect width="6" height="6" x="72" y="96" style="fill:#000"/><rect width="6" height="6" x="84" y="96" style="fill:#000"/><rect width="6" height="6" x="96" y="96" style="fill:#000"/><rect width="6" height="6" x="102" y="96" style="fill:#000"/><rect width="6" height="6" x="108" y="96" style="fill:#000"/><rect width="6" height="6" x="114" y="96" style="fill:#000"/><rect width="6" height="6" x="120" y="96" style="fill:#000"/><rect width="6" height="6" x="162" y="96" style="fill:#000"/>
<rect width="6" height="6" x="0" y="102" style="fill:#000"/><rect width="6" height="6" x="12" y="102" style="fill:#000"/><rect width="6" height="6" x="30" y="102" style="fill:#000"/><rect width="6" height="6" x="54" y="102" style="fill:#000"/><rect width="6" height="6" x="66" y="102" style="fill:#000"/><rect width="6" height="6" x="72" y="102" style="fill:#000"/><rect width="6" height="6" x="84" y="102" style="fill:#000"/><rect width="6" height="6" x="90" y="102" style="fill:#000"/><rect width="6" height="6" x="96" y="102" style="fill:#000"/><rect width="6" height="6" x="132" y="102" style="fill:#000"/><rect width="6" height="6" x="138" y="102" style="fill:#000"/><rect width="6" height="6" x="144" y="102" style="fill:#000"/><rect width="6" height="6" x="156" y="102" style="fill:#000"/><rect width="6" height="6" x="168" y="102" style="fill:#000"/>
<rect width="6" height="6" x="12" y="108" style="fill:#000"/><rect width="6" height="6" x="18" y="108" style="fill:#000"/><rect width="6" height="6" x="30" y="108" style="fill:#000"/><rect width="6" height="6" x="36" y="108" style="fill:#000"/><rect width="6" height="6" x="60" y="108" style="fill:#000"/><rect width="6" height="6" x="78" y="108" style="fill:#000"/><rect width="6" height="6" x="96" y="108" style="fill:#000"/><rect width="6" height="6" x="102" y="108" style="fill:#000"/><rect width="6" height="6" x="144" y="108" style="fill:#000"/><rect width="6" height="6" x="168" y="108" style="fill:#000"/>
<rect width="6" height="6" x="24" y="114" style="fill:#000"/><rect width="6" height="6" x="42" y="114" style="fill:#000"/><rect width="6" height="6" x="54" y="114" style="fill:#000"/><rect width="6" height="6" x="66" y="114" style="fill:#000"/><rect width="6" height="6" x="90" y="114" style="fill:#000"/><rect width="6" height="6" x="96" y="114" style="fill:#000"/><rect width="6" height="6" x="114" y="114" style="fill:#000"/><rect width="6" height="6" x="120" y="114" style="fill:#000"/><rect width="6" height="6" x="144" y="114" style="fill:#000"/><rect width="6" height="6" x="150" y="114" style="fill:#000"/>
<rect width="6" height="6" x="0" y="120" style="fill:#000"/><rect width="6" height="6" x="6" y="120" style="fill:#000"/><rect width="6" height="6" x="12" y="120" style="fill:#000"/><rect width="6" height="6" x="24" y="120" style="fill:#000"/><rect width="6" height="6" x="36" y="120" style="fill:#000"/><rect width="6" height="6" x="42" y="120" style="fill:#000"/><rect width="6" height="6" x="54" y="120" style="fill:#000"/><rect width="6" height="6" x="66" y="120" style="fill:#000"/><rect width="6" height="6" x="108" y="120" style="fill:#000"/><rect width="6" height="6" x="120" y="120" style="fill:#000"/><rect width="6" height="6" x="126" y="120" style="fill:#000"/><rect width="6" height="6" x="132" y="120" style="fill:#000"/><rect width="6" height="6" x="138" y="120" style="fill:#000"/><rect width="6" height="6" x="144" y="120" style="fill:#000"/><rect width="6" height="6" x="150" y="120" style="fill:#000"/><rect width="6" height="6" x="162" y="120" style="fill:#000"/>
<rect width="6" height="6" x="48" y="126" style="fill:#000"/><rect width="6" height="6" x="60" y="126" style="fill:#000"/><rect width="6" height="6" x="66" y="126" style="fill:#000"/><rect width="6" height="6" x="96" y="126" style="fill:#000"/><rect width="6" height="6" x="102" y="126" style="fill:#000"/><rect width="6" height="6" x="108" y="126" style="fill:#000"/><rect width="6" height="6" x="114" y="126" style="fill:#000"/><rect width="6" height="6" x="120" y="126" style="fill:#000"/><rect width="6" height="6" x="144" y="126" style="fill:#000"/><rect width="6" height="6" x="156" y="126" style="fill:#000"/><rect width="6" height="6" x="168" y="126" style="fill:#000"/>
<rect width="6" height="6" x="0" y="132" style="fill:#000"/><rect width="6" height="6" x="6" y="132" style="fill:#000"/><rect width="6" height="6" x="12" y="132" style="fill:#000"/><rect width="6" height="6" x="18" y="132" style="fill:#000"/><rect width="6" height="6" x="24" y="132" style="fill:#000"/><rect width="6" height="6" x="30" y="132" style="fill:#000"/><rect width="6" height="6" x="36" y="132" style="fill:#000"/><rect width="6" height="6" x="48" y="132" style="fill:#000"/><rect width="6" height="6" x="60" y="132" style="fill:#000"/><rect width="6" height="6" x="66" y="132" style="fill:#000"/><rect width="6" height="6" x="72" y="132" style="fill:#000"/><rect width="6" height="6" x="78" y="132" style="fill:#000"/><rect width="6" height="6" x="96" y="132" style="fill:#000"/><rect width="6" height="6" x="102" y="132" style="fill:#000"/><rect width="6" height="6" x="114" y="132" style="fill:#000"/><rect width="6" height="6" x="120" y="132" style="fill:#000"/><rect width="6" height="6" x="132" y="132" style="fill:#000"/><rect width="6" height="6" x="144" y="132" style="fill:#000"/><rect width="6" height="6" x="168" y="132" style="fill:#000"/>
<rect width="6" height="6" x="0" y="138" style="fill:#000"/><rect width="6" height="6" x="36" y="138" style="fill:#000"/><rect width="6" height="6" x="48" y="138" style="fill:#000"/><rect width="6" height="6" x="54" y="138" style="fill:#000"/><rect width="6" height="6" x="66" y="138" style="fill:#000"/><rect width="6" height="6" x="78" y="138" style="fill:#000"/><rect width="6" height="6" x="84" y="138" style="fill:#000"/><rect width="6" height="6" x="90" y="138" style="fill:#000"/><rect width="6" height="6" x="96" y="138" style="fill:#000"/><rect width="6" height="6" x="108" y="138" style="fill:#000"/><rect width="6" height="6" x="114" y="138" style="fill:#000"/><rect width="6" height="6" x="120" y="138" style="fill:#000"/><rect width="6" height="6" x="144" y="138" style="fill:#000"/><rect width="6" height="6" x="150" y="138" style="fill:#000"/><rect width="6" height="6" x="162" y="138" style="fill:#000"/><rect width="6" height="6" x="168" y="138" style="fill:#000"/>
<rect width="6" height="6" x="0" y="144" style="fill:#000"/><rect width="6" height="6" x="12" y="144" style="fill:#000"/><rect width="6" height="6" x="18" y="144" style="fill:#000"/><rect width="6" height="6" x="24" y="144" style="fill:#000"/><rect width="6" height="6" x="36" y="144" style="fill:#000"/><rect width="6" height="6" x="48" y="144" style="fill:#000"/><rect width="6" height="6" x="66" y="144" style="fill:#000"/><rect width="6" height="6" x="78" y="144" style="fill:#000"/><rect width="6" height="6" x="84" y="144" style="fill:#000"/><rect width="6" height="6" x="108" y="144" style="fill:#000"/><rect width="6" height="6" x="114" y="144" style="fill:#000"/><rect width="6" height="6" x="120" y="144" style="fill:#000"/><rect width="6" height="6" x="126" y="144" style="fill:#000"/><rect width="6" height="6" x="132" y="144" style="fill:#000"/><rect width="6" height="6" x="138" y="144" style="fill:#000"/><rect width="6" height="6" x="144" y="144" style="fill:#000"/><rect width="6" height="6" x="162" y="144" style="fill:#000"/><rect width="6" height="6" x="168" y="144" style="fill:#000"/>
<rect width="6" height="6" x="0" y="150" style="fill:#000"/><rect width="6" height="6" x="12" y="150" style="fill:#000"/><rect width="6" height="6" x="18" y="150" style="fill:#000"/><rect width="6" height="6" x="24" y="150" style="fill:#000"/><rect width="6" height="6" x="36" y="150" style="fill:#000"/><rect width="6" height="6" x="54" y="150" style="fill:#000"/><rect width="6" height="6" x="66" y="150" style="fill:#000"/><rect width="6" height="6" x="72" y="150" style="fill:#000"/><rect width="6" height="6" x="102" y="150" style="fill:#000"/><rect width="6" height="6" x="138" y="150" style="fill:#000"/><rect width="6" height="6" x="150" y="150" style="fill:#000"/><rect width="6" height="6" x="162" y="150" style="fill:#000"/>
<rect width="6" height="6" x="0" y="156" style="fill:#000"/><rect width="6" height="6" x="12" y="156" style="fill:#000"/><rect width="6" height="6" x="18" y="156" style="fill:#000"/><rect width="6" height="6" x="24" y="156" style="fill:#000"/><rect width="6" height="6" x="36" y="156" style="fill:#000"/><rect width="6" height="6" x="54" y="156" style="fill:#000"/><rect width="6" height="6" x="60" y="156" style="fill:#000"/><rect width="6" height="6" x="78" y="156" style="fill:#000"/><rect width="6" height="6" x="90" y="156" style="fill:#000"/><rect width="6" height="6" x="96" y="156" style="fill:#000"/><rect width="6" height="6" x="108" y="156" style="fill:#000"/><rect width="6" height="6" x="114" y="156" style="fill:#000"/><rect width="6" height="6" x="120" y="156" style="fill:#000"/><rect width="6" height="6" x="126" y="156" style="fill:#000"/><rect width="6" height="6" x="150" y="156" style="fill:#000"/><rect width="6" height="6" x="162" y="156" style="fill:#000"/><rect width="6" height="6" x="168" y="156" style="fill:#000"/>
<rect width="6" height="6" x="0" y="162" style="fill:#000"/><rect width="6" height="6" x="36" y="162" style="fill:#000"/><rect width="6" height="6" x="60" y="162" style="fill:#000"/><rect width="6" height="6" x="78" y="162" style="fill:#000"/><rect width="6" height="6" x="102" y="162" style="fill:#000"/><rect width="6" height="6" x="120" y="162" style="fill:#000"/><rect width="6" height="6" x="138" y="162" style="fill:#000"/><rect width="6" height="6" x="150" y="162" style="fill:#000"/><rect width="6" height="6" x="162" y="162" style="fill:#000"/><rect width="6" height="6" x="168" y="162" style="fill:#000"/>
<rect width="6" height="6" x="0" y="168" style="fill:#000"/><rect width="6" height="6" x="6" y="168" style="fill:#000"/><rect width="6" height="6" x="12" y="168" style="fill:#000"/><rect width="6" height="6" x="18" y="168" style="fill:#000"/><rect width="6" height="6" x="24" y="168" style="fill:#000"/><rect width="6" height="6" x="30" y="168" style="fill:#000"/><rect width="6" height="6" x="36" y="168" style="fill:#000"/><rect width="6" height="6" x="60" y="168" style="fill:#000"/><rect width="6" height="6" x="72" y="168" style="fill:#000"/><rect width="6" height="6" x="78" y="168" style="fill:#000"/><rect width="6" height="6" x="84" y="168" style="fill:#000"/><rect width="6" height="6" x="102" y="168" style="fill:#000"/><rect width="6" height="6" x="120" y="168" style="fill:#000"/><rect width="6" height="6" x="126" y="168" style="fill:#000"/><rect width="6" height="6" x="132" y="168" style="fill:#000"/><rect width="6" height="6" x="144" y="168" style="fill:#000"/><rect width="6" height="6" x="150" y="168" style="fill:#000"/><rect width="6" height="6" x="162" y="168" style="fill:#000"/>
</svg>